<svg id="Layer_1" data-name="Layer 1" xmlns="http://www.w3.org/2000/svg" xmlns:xlink="http://www.w3.org/1999/xlink" viewBox="0 0 500 500"><defs><style>.cls-1{fill:#a86d4f;}.cls-2{fill:#f4f2f1;}.cls-3{fill:url(#radial-gradient);}.cls-4{fill:url(#radial-gradient-2);}.cls-5{fill:#9b6249;}.cls-6{fill:#af7358;opacity:0.65;}.cls-7{fill:#7a5447;}.cls-8{fill:#bfbebe;opacity:0.7;}.cls-9{fill:#dbd8d7;}.cls-10{fill:#955e3f;}.cls-11{fill:url(#radial-gradient-3);}.cls-12{fill:url(#radial-gradient-4);}.cls-13{fill:url(#radial-gradient-5);}.cls-14{fill:url(#radial-gradient-6);}.cls-15{fill:#000409;}.cls-16{fill:#f9f9f9;}</style><radialGradient id="radial-gradient" cx="120.71" cy="250.58" fx="44.16298747235287" fy="370.5293136391142" r="158.95" gradientUnits="userSpaceOnUse"><stop offset="0" stop-color="#734a33"/><stop offset="0.16" stop-color="#825338"/><stop offset="0.39" stop-color="#905b3d"/><stop offset="0.59" stop-color="#955e3f"/></radialGradient><radialGradient id="radial-gradient-2" cx="417.21" cy="323.7" fx="417.2129916771082" fy="323.7027064501617" r="209.4" xlink:href="#radial-gradient"/><radialGradient id="radial-gradient-3" cx="182.45" cy="180.7" fx="182.4510755350684" fy="180.70361863693142" r="30.56" xlink:href="#radial-gradient"/><radialGradient id="radial-gradient-4" cx="181.01" cy="200.25" r="30.56" gradientUnits="userSpaceOnUse"><stop offset="0" stop-color="#734a33"/><stop offset="0.02" stop-color="#744b33"/><stop offset="0.63" stop-color="#8c593c"/><stop offset="1" stop-color="#955e3f"/></radialGradient><radialGradient id="radial-gradient-5" cx="326.69" cy="187.37" fx="326.69257361016935" fy="187.37325975114254" r="30.56" gradientTransform="matrix(-1, 0, 0, 1, 653.39, 0)" xlink:href="#radial-gradient"/><radialGradient id="radial-gradient-6" cx="327.76" cy="203.05" r="30.56" gradientTransform="matrix(-1, 0, 0, 1, 653.39, 0)" gradientUnits="userSpaceOnUse"><stop offset="0" stop-color="#734a33"/><stop offset="0.26" stop-color="#805238"/><stop offset="0.67" stop-color="#905b3d"/><stop offset="1" stop-color="#955e3f"/></radialGradient></defs><path class="cls-1" d="M245.47,66.25c-21.4.2-58.27.54-84.95,26.09-22.43,21.47-25.59,49.19-26.63,58.34-3.3,29,8.65,34.55,15.91,85.15.66,4.55,2.17,23.2,5.21,60.5,3.22,39.72,4.05,53.81,15.6,67.42,9.95,11.72,22.22,16.44,33.78,20.88,3.9,1.5,51.76,19.06,98.43-4.17,9.55-4.75,18.64-9.27,26.32-19,13.88-17.61,9.46-34.92,13.36-65.2,3.27-25.39,8.08-26.47,16-58.79a400,400,0,0,0,11.32-92.86,96.72,96.72,0,0,0-22.51-43.18C314.63,65.61,263.79,66.08,245.47,66.25Z"/><path class="cls-2" d="M256.06,133.37c-14.43-.32-24.64,24.81-26.1,28.4-8.11,20-1.09,28-6.05,55.32-3.07,16.89-5.71,31.36-16.43,44.08-17.82,21.15-39.64,15.69-48.4,35.44-3.82,8.61-2.87,16.87-1.41,29.71,1.07,9.28,3,24.29,12.94,37.43,9.06,11.91,21.19,16,33.78,20.88,3.91,1.5,51.76,19.06,98.43-4.17,14.68-7.3,22.11-13.4,26.32-19a57.6,57.6,0,0,0,9-18.31c2.21-7.65,1.57-11.44,2.4-24.77,1.39-22.28,3.76-21.21,2.39-25.31-6-17.88-40.93-7.87-57.66-29.29-8.3-10.63-8-23.85-7.39-50.28.66-28.84,7.7-38.07,1.09-55.63C278.31,156.08,269.58,133.66,256.06,133.37Z"/><path class="cls-3" d="M218.05,67.63c-13.16-.79-35.65-.27-57.84,11.46-9.33,4.93-15.55,10.22-21.42,15.55C101,128.93,75.13,167,64.57,183.1,47,209.88,38.1,223.6,32.9,239.86c-7.44,23.25-15.51,48.51-3.06,69.72,8.11,13.83,20.84,18.93,27.85,40.34,2.53,7.73,1.77,9.82,5.2,17.29,5.35,11.67,13.3,19.86,23.26,30,10.8,11,12.92,10.9,16.52,17.29,5.89,10.44,3.86,17,8.27,19,1.74.76,8.24,2.45,29.68-20.1a250.83,250.83,0,0,0,34.1-45.22,56.81,56.81,0,0,1-11.45-16.87c-2.81-6.45-3.7-12-5.05-21-1.13-7.5-1.48-13.05-1.72-16.75-.75-11.32-2-22.61-2.87-33.93-3.37-43.55-3.64-47.11-5.28-55.1-2.34-11.42-5.8-23.85-5.8-23.85-4.7-16.84-6.85-20-8.2-30.06a96.57,96.57,0,0,1,9.79-56.1c3.27-6.17,9.46-17.56,22.5-27.6,0,0,11.32-8.73,31.21-15.28a64,64,0,0,1,7.91-2.08c1.89-.33,3-.4,6.26-.88C214.59,68.25,216.68,67.88,218.05,67.63Z"/><path class="cls-1" d="M207.34,68.63a122.14,122.14,0,0,0-18.63,3.24,135.08,135.08,0,0,0-33.59,13.92c-2.72,1.5-4.67,2.69-6.47,3.89a104.37,104.37,0,0,0-13.47,11C100,133.39,75.93,169.76,66.1,185.12,49.74,210.7,41.46,223.8,36.61,239.33c-6.92,22.21-14.44,46.33-2.84,66.6,3.92,6.86,9,11.48,13.91,17.2a58.11,58.11,0,0,1,12,21.32c2.35,7.38,1.65,9.38,4.84,16.51,5,11.15,12.38,19,21.65,28.62,10.06,10.47,12,10.4,15.38,16.51,5.48,10,3.59,16.25,7.7,18.1,6.63,3,24.32-15.61,27.63-19.2A230.75,230.75,0,0,0,167,363.75a83.45,83.45,0,0,1-9-18.06,102.58,102.58,0,0,1-4.7-20c-1.06-7.16-1.38-12.46-1.61-16-.7-10.81-1.85-21.59-2.67-32.4-3.13-41.59-3.39-45-4.91-52.62-2.18-10.91-5.4-22.78-5.4-22.78-4.37-16.08-6.38-19.07-7.63-28.71a94.37,94.37,0,0,1,9.11-53.58c3-5.89,8.8-16.77,20.94-26.36h0c15.5-11.93,21.93-18,28.38-19.83.37-.11,2.69-.78,5.58-1.57l5.39-1.44C202.38,69.88,204.7,69.28,207.34,68.63Z"/><path class="cls-4" d="M274.82,67.56c15.78,1.7,28.85,3.12,42.92,4.61,8.74.92,16.85,1.77,25.29,6.92,5.91,3.6,7.23,6.43,12.74,11.81,13.69,13.4,22,12,34.27,22.18,6.34,5.25,4.37,5.81,19.89,28.82,17.12,25.37,20.07,25.49,28.73,41.2,7.15,13,5.48,13.48,14.27,29.82,11.16,20.73,14.25,20.62,18.41,30.64.59,1.4,12.46,31.13-1.42,57.38-10.63,20.09-26.16,18.92-34.28,41.49-1.79,5-3.4,11.63-8.57,21.32a115.61,115.61,0,0,1-12.85,19c-5.85,7.08-10.71,11.33-19.59,19-14.65,12.69-22.1,19-28.15,19-9.67,0-16.77-8.2-22.65-15-12.42-14.31-16.06-30.5-17.14-41.2a54.4,54.4,0,0,0,8.42-13.4c3-6.88,3.79-12.75,4.59-19,.22-1.75.37-3.26.48-4.65.42-5.49.43-9.49.44-10.91,0,0,0-14.33,4.8-37.1.32-1.51.72-2.82.72-2.82.53-1.73,1-2.7,1.49-4a43.2,43.2,0,0,0,1.53-5.08,76,76,0,0,1,3-8.41c2.81-7.22,4.6-14.84,7.12-25.46.79-3.36,1.35-5.95,1.68-7.49,0,0,1.94-9.08,4.44-23.63,1.32-10.6,2.26-19.37,2.9-25.79.69-6.78.94-10,1.07-14a118.29,118.29,0,0,0-.45-18.15c-1.63-12.94-7.07-22.48-10.26-27.95A91.42,91.42,0,0,0,336,91c-1.42-1.18-3.61-2.92-6.43-4.84-9.27-6.31-18-9.45-24.25-11.72-3.91-1.42-7.28-2.41-8.19-2.67-1.21-.35-3.75-1.07-6.58-1.73A119.17,119.17,0,0,0,274.82,67.56Z"/><path class="cls-1" d="M287.08,69.5c7.23,1.16,13.43,2,18.29,2.49,7.83.88,9.79.86,14.85,1.8,7.62,1.42,12.15,2.26,17.37,5.31,3.9,2.28,6.81,5,10.8,8.71,3.46,3.22,5.23,5.29,6.73,6.84C367,106.92,379.79,105.44,389.43,117c.58.71,2.4,2.94,4.5,5.91,3.07,4.33,4.63,7.29,7.07,11.32,2,3.27,4.62,7.53,8.37,13.24,15.91,24.23,18.65,24.34,26.7,39.34,6.64,12.38,5.08,12.88,13.26,28.48,10.36,19.79,13.23,19.7,17.1,29.26.55,1.34,11.58,29.73-1.32,54.8-9.87,19.19-24.31,18.07-31.85,39.62-1.67,4.77-3.17,11.11-8,20.37a111.33,111.33,0,0,1-11.94,18.16c-5.44,6.76-10,10.82-18.2,18.16-13.62,12.11-20.54,18.17-26.17,18.16-9,0-15.57-7.83-21-14.31C336.4,385.83,333,370.37,332,360.15a51.94,51.94,0,0,0,7.82-12.79c2.79-6.57,3.53-12.18,4.27-18.16s.62-9.2.85-14.86a179.57,179.57,0,0,1,4.69-35.22c1.14-4.62.66-1.65,6.05-19.57,2.73-9.1,4.67-15.9,6.61-24.32.74-3.2,1.26-5.68,1.56-7.15,0,0,1.81-8.67,4.13-22.57,1.22-10.12,2.1-18.49,2.7-24.62.63-6.48.87-9.55,1-13.35a114.84,114.84,0,0,0-.42-17.33c-1.51-12.36-6.57-21.47-9.53-26.69a86.61,86.61,0,0,0-21-24.63c-1.88-1.51-2.59-2-3.81-2.88,0,0-.88-.67-2.17-1.75-4.29-3.59-9.94-11.05-18.12-15.32-2.77-1.45-6.81-3-7.19-3.19-2.52-1-4.46-1.62-5.59-2A161.15,161.15,0,0,0,287.08,69.5Z"/><path class="cls-5" d="M49.65,325.82c.64.73,1.63,1.91,2.75,3.43,9.67,13.09,9.28,24.19,13.91,35.36,2.32,5.61,6.79,13.34,16.27,21.2C111.9,332.77,115.48,292,113,264c-2.26-25.27-10.69-53.53-1.5-94.16A159.85,159.85,0,0,1,127,128a156.09,156.09,0,0,1,43.72-50,128.25,128.25,0,0,0-21,11.7c-8.4,5.77-14,11.09-22,18.82-1.25,1.2-11.54,11.13-20.89,21.8-23.8,27.18-48.78,67.59-52.59,73.8a94.25,94.25,0,0,0-3.18,29.39c1.54,29.56,16.74,42.42,13,64.81C62.9,304.7,59.85,314.58,49.65,325.82Z"/><path class="cls-6" d="M150.32,292.88c-.93-12.54-1.19-13.94-2-24.47-1.64-21.52-1.35-24.25-2.83-34.56-1-7.14-2.18-12.87-3-16.37a10.43,10.43,0,0,0-2.62.92c-16.29,8.33,8.78,52.64-6.84,100.08C122.75,349.86,97.77,373,94,376.44a144.67,144.67,0,0,1-11.44,9.37c10,10.84,14.49,15.74,14.71,15.9l.12.09.57.43a18,18,0,0,1,3.58,3.86c1.24,1.8,1.84,3.32,3.78,9.69,1.52,5,1.58,7.31,3.53,8.32,2.24,1.15,5.22-.31,8-1.67a25.91,25.91,0,0,0,7-4.95c10.62-10.74,7.91-6.57,15.11-14.71a237.56,237.56,0,0,0,23.61-31.56c1.93-3.09,3.46-5.69,4.48-7.46a88.15,88.15,0,0,1-7.13-13.23,101.21,101.21,0,0,1-7.61-31.32c0-.25-.33-4.37-.93-12.6S150.41,294.1,150.32,292.88Z"/><path class="cls-7" d="M50.82,327c7.32-6.81,15.86-17.15,17.46-30.76,1.74-14.81-5.89-23.79-10.94-41-3.55-12.1-6.24-29.67-2-53.17a156.74,156.74,0,0,0-14.11,25.23,166,166,0,0,0-9.37,28.06c-2.38,9.37-3.61,14.21-3.91,21.42-.28,6.84-.64,15.47,3.66,24.78,2.1,4.56,4.54,7.83,8.81,13.43A128.25,128.25,0,0,0,50.82,327Z"/><path class="cls-5" d="M348.39,87.81A130.38,130.38,0,0,0,370,130.92c5.9,7.7,7.26,8.71,10.36,13.49,13.06,20.13,8.32,43.9,4.76,69.31-4.14,29.53-8,57.08-6.48,79.2,1.38,20.07,8.14,49.47,34.75,84.57A67.94,67.94,0,0,0,426,358c4.19-10,4.23-17.33,11.34-27.73a75.52,75.52,0,0,1,5.83-7.37c7.11-8.11,11.48-10.28,15.86-14.86,6.36-6.65,8.59-14.05,10.36-19.91,6.33-21-1.2-39.47-3.94-45.93-3.28-7.72-3.95-5.78-12.46-20.23-.92-1.56-1.77-3-2.56-4.44-11-19.55-10.16-25-21.16-41.73-8.52-13-9.43-10.33-16.84-22.55-4.79-7.89-9.8-17.88-18.47-30.35A43.9,43.9,0,0,0,383.75,112c-2.67-2-3.3-1.92-11-6.08-8-4.28-12-6.49-16.05-9.75A54,54,0,0,1,348.39,87.81Z"/><path class="cls-7" d="M440.55,197.28a130.55,130.55,0,0,0-9.75,31.92c-7,41.38,8.19,75.25,15.93,89.85a53.74,53.74,0,0,0,17.6-18.21c7.12-12.28,7.14-24,7.15-30.24A68.57,68.57,0,0,0,463.8,239c-2.68-5.16-4.34-6.73-7.69-11.82-2.84-4.3-4.93-8.39-9.11-16.56C445.24,207.15,443,202.65,440.55,197.28Z"/><path class="cls-6" d="M361.81,237.31c-.17,5.6-.31,15,.23,26.57,1.72,36.73,4.36,92.93,36.2,109.27a42.1,42.1,0,0,0,15.11,4.34c-2.35,2.81-5.68,6.62-9.91,10.92-8.31,8.46-7.59,6.08-19,16.63-4.58,4.22-8.48,8.1-14.57,8.57a17.3,17.3,0,0,1-3.33-.09c-9.55-1.2-16.83-11.3-19-14.44A70.52,70.52,0,0,1,332,360.15a52.61,52.61,0,0,0,4.65-6.39c9.61-15.58,8.41-32.34,8.21-37.09C344.32,303.7,347,280.82,361.81,237.31Z"/><path class="cls-8" d="M252.13,337.48a16.12,16.12,0,0,0-8.3,1.46c-4.21,2.22-6,6.25-7.12,8.6-1.81,3.82-7.36,15.7-12.65,20.82-8.76,8.46-23.81,6.2-29.66,5.32A50.9,50.9,0,0,1,170.31,363a46.85,46.85,0,0,0,12.21,10.91c13.31,8.17,33.21,10.85,46.73,2.22s12.56-23.27,20.71-23.7c8.54-.45,9,15.69,24.37,22.42s33.78-.88,39.23-3.1a66.46,66.46,0,0,0,12.94-7.05c-22.28,11-34.38,8.83-41.25,5.12C271.76,362.54,258.1,338,252.13,337.48Z"/><path class="cls-9" d="M250.68,331.86a16.17,16.17,0,0,0-8.3,1.45c-4.21,2.22-6,6.26-7.12,8.61-2.08,4.4-7.29,15.41-12.65,20.82-8.75,8.83-23.05,7.93-29,7.56A50.76,50.76,0,0,1,170,362.59a54.72,54.72,0,0,0,22.79,11.6c4.28,1,21.22,5,35-3.68,14.29-9,13.27-24.12,21.54-24.76,9-.7,9.49,17.44,26.43,24.76s39.22-1.05,43.87-2.8a75.87,75.87,0,0,0,7.05-3.09c-22.54,7.58-35.28,4.49-42.89-.41C269.58,355.05,263.09,333,250.68,331.86Z"/><path class="cls-10" d="M294.07,296.6c-3.57-13.91-28.58-19.38-42.95-19.84-16.3-.51-41.76,4.72-45.54,18.09-3.69,13,13.37,33.42,45.08,44C281,329.83,297.47,309.89,294.07,296.6Z"/><path class="cls-1" d="M263.71,296.25c0-3.08-7.35-6-13.51-6.23-6.46-.2-14.2,2.57-14.31,5.69s7.53,6.62,14.29,6.61C256.4,302.31,263.69,299.32,263.71,296.25Z"/><path class="cls-11" d="M214.92,174.17c2.52,13.62-11.63,27.68-25.33,32.4-10.88,3.74-28.38,4-36.11-7-9.16-13-.86-36.32,15.6-44.16C187.1,146.87,212,158.29,214.92,174.17Z"/><path class="cls-12" d="M214.92,180.76c2.52,13.62-11.63,27.68-25.33,32.4-10.88,3.74-28.38,4-36.11-7-9.16-13-.86-36.32,15.6-44.16C187.1,153.46,212,164.88,214.92,180.76Z"/><path class="cls-13" d="M294.22,180.84c-2.52,13.62,11.63,27.68,25.34,32.4,10.88,3.74,28.38,4,36.1-7,9.16-13,.86-36.32-15.6-44.16C322.05,153.54,297.16,165,294.22,180.84Z"/><path class="cls-14" d="M292.44,186.07c-2.52,13.62,11.62,27.68,25.33,32.4,10.88,3.74,28.38,4,36.11-7,9.16-12.95.86-36.32-15.6-44.16C320.26,158.77,295.38,170.19,292.44,186.07Z"/><path class="cls-15" d="M302.13,188.72c-.12-10.55,7.74-19.66,18.37-21.61a23.45,23.45,0,0,1,24.78,11.67c-.13,1.67-1.09,11.41-9.18,16.64C326.93,201.35,312.05,199.24,302.13,188.72Z"/><ellipse class="cls-16" cx="315.33" cy="184.72" rx="8.38" ry="7.89"/><path class="cls-15" d="M202.74,188c.13-10.55-7.73-19.66-18.36-21.61a23.46,23.46,0,0,0-24.79,11.67c.14,1.67,1.1,11.41,9.18,16.64C177.94,200.63,192.82,198.52,202.74,188Z"/><ellipse class="cls-16" cx="189.54" cy="184" rx="8.38" ry="7.89"/></svg>