<svg width="1920" height="1920" viewBox="0 0 1920 1920" xmlns="http://www.w3.org/2000/svg">
<clipPath id="a">
<path id="b" fill="#2cd3e3" d="m1334.5488 1582.1247c-28.4552-23.0252-43.2128-44.8707-64.5988-95.6247-25.3093-60.0651-47.8839-87.6239-87.964-107.3859-19.9998-9.8611-40.1173-15.0444-66.3812-17.1032-18.9074-1.4822-86.6304-.5278-105.3003-2.0652-69.92737-5.7579-123.90089-26.1169-173.47181-65.4343-33.41312-26.5017-70.02913-69.9082-94.99294-112.5114-59.79603-102.0478-81.37876-198.78271-213.27375-277.5941 12.39924-21.70183 34.09241-35.09759 55.52244-46.62618 20.4843-40.74139 42.32638-74.39974 95.91156-90.58542 12.92189-3.90313 19.90689-4.69554 41-4.65128 19.70006.0414 20.96826.16562 32.5 3.18481 21.18287 5.546 34.31788 11.45635 53.38893 24.02338 19.97173 13.16053 31.44414 24.26503 56.13281 54.33267 17.87816 21.77332 20.10026 24.33205 29.31923 33.76085 38.65972 39.53961 73.34668 36.56267 77.81969 36.14929-3.67291-7.73135-7.29364-23.38307-9.10389-39.62667-1.95764-17.56621-3.46012-42.21303-.95323-62.86735 2.58304-21.28177 9.83227-48.31061 17.50821-65.27964 1.31354-2.90379 2.38825-5.54332 2.38825-5.86561 0-1.65552 15.0061-30.21565 21.1639-40.27977 15.3858-25.14644 47.5329-70.83509 57.3361-81.48827.55-.59769 3.6688-4.42585 6.9307-8.50703 20.0294-25.06008 61.3537-67.08217 85.5693-87.01412 4.125-3.3953 9.7022-8.06154 12.3937-10.36942s5.8415-4.84506 7-5.63818 2.3313-1.72317 2.6063-2.06678c.8826-1.1028 27.1338-20.41419 38.5-28.32203 6.05-4.2092 11.45-8.01486 12-8.45702.55-.44217 7.525-4.99177 15.5-10.11024s16.3-10.54797 18.5-12.06558c2.2-1.5176 6.25-3.99698 9-5.50973s7.925-4.47099 11.5-6.57386c13.4478-7.91025 40.507-21.75211 58.5406-29.94597 3.8277-1.73914 8.3094-3.83676 9.9594-4.66137s8.6073-3.99308 15.4606-7.04105c10.2629-4.56435 23.0544-10.9269 35.5224-17.66911 11.2219-6.06834 23.0076-14.83706 33.267-24.75094 3.9875-3.85322 7.25-7.2074 7.25-7.45373 0-.41324 3.9579-5.11446 6.6475-7.896 13.3625-17.52378 25.7406-36.11072 37.3525-54.41717 2.8879-6.21005 7.1747-10.94806 10.9967-16.61738 14.2693-21.35936 38.3987-46.12055 52.8954-54.28053 6.5625-3.69394 6.6868-3.71947 18.1079-3.71947h11.5l7.072 4.76366c7.5209 5.06596 10.2495 8.10481 12.3342 13.73634.7126 1.925 1.8127 4.58582 2.4447 5.91293.6555 1.3765 1.0922 6.59185 1.0166 12.142-.1294 9.49449-1.9623 17.67936-5.9561 26.5962-.7763 1.73312-1.4114 3.46586-1.4114 3.85053 0 1.64538-11.5429 23.35454-16.3963 30.83705-5.0777 7.82835-16.4697 23.23766-22.6523 30.64036-5.262 6.30047-11.3563 14.48273-16.0682 21.57342-8.8399 13.3025-15.6286 24.4666-16.5854 26.0786 10.8788-1.30869 21.897-1.65453 32.6366 1.10818 1.2886.4184 2.1768.98674 3.669 1.86853 4.1956 2.47926 11.6427 7.2794 15.4941 12.3922 1.8644 2.475 3.6551 4.725 3.9794 5 .3242.275 1.8996 3.2 3.5007 6.5 2.6871 5.53821 2.9707 9.13322 3.1386 18.60473.189 10.66226-.9846 16.29074-1.191 19.75385 6.6399-3.85785 68.2097-48.67035 101.9748-81.25338 11.0808-10.69288 36.2578-31.38092 45-37.25385 7.9297-5.32709 19.7095-10.85876 26.3612-12.37894 7.6088-1.73891 17.6682-.79227 24.418 2.29787 5.7726 2.64277 12.1294 8.29114 13.2286 11.75417.3448 1.08655 1.0105 1.97555 1.4792 1.97555 1.8172 0 4.2605 10.38748 4.1748 17.7484-.1093 9.39437-2.037 16.08622-7.322 25.41898-3.6169 6.38689-11.1266 16.63906-12.7836 18.83262-1.5504 2.05248-40.135 48.18251-56.9886 65.86569 30.3686 14.93501 32.4554 41.18744 24.255 71.63431-3.1937 10.14275-18.2308 38.01159-25.8091 53-20.1691 39.89035-69.5128 84.65212-89.0886 100 21.0212 8.92454 30.5113 33.51052 28.588 60.4132-1.4231 19.90537-12.2817 36.97875-37.1412 66.76616-33.7924 40.49125-49.7967 56.06859-72.5779 70.64162-20.2524 12.9553-43.9723 19.71177-43.9723 19.71177l2.0507 5.73362c2.7125 7.58411 2.9095 26.06285.3634 34.10628-2.032 6.41958-7.4973 16.55768-13.0067 24.12735-14.0923 19.36253-57.6985 53.0432-84.2781 65.095-23.5526 10.6791-38.5513 11.0799-38.5513 11.0799s4.4828 17.4333 4.5366 32.3251c.062 17.2547-1.6171 24.9745-8.4225 38.7141-13.1955 27.7415-40.4507 43.1189-64.2219 60.6872.624 1.5922 14.0082 16.3275 33.214 33.2719 24.8978 21.9664 46.1991 38.8539 58.1406 46.0936 2.9445 1.7851 7.3787 4.6388 9.8537 6.3416 6.9336 4.77 23.2748 13.4845 35.5 18.9314 6.9705 3.1057 26.8466 10.3458 30.5 11.1099 1.375.2876 4.525 1.143 7 1.9009 6.4625 1.9791 28.7403 5.8808 57 9.9829 44.0448 6.3935 66.3152 13.2318 83.5 25.6391 6.0801 4.3899 18.6026 18.1866 21.9348 24.1668 1.888 3.3883 4.6832 9.7606 6.2116 14.1606 2.5802 7.4282 2.7815 9.1436 2.8162 24 .042 17.9653-1.0805 23.8424-6.9121 36.1911-19.8567 42.0471-55.5096 46.1675-56.5901 47.4421l.2016 18.8668c.1149 10.7554-.309 15.0482-1.9509 21.116-7.88 29.1225-30.5077 51.5014-60.7111 60.0436-6.468 1.8294-10.5853 2.7691-21.5 2.8332-4.0173.024-17.2994-.6829-19.9921-1.4742 0 3.326-10.1664 20.2644-14.9191 25.1952-11.8393 12.2831-25.5479 18.2905-43.0888 18.8825-38.6908 1.3062-77.5246-27.63-88.4512-36.4716z"/>
</clipPath>
<path d="m0 0h1920v1920h-1920z" fill="#99eaff"/>
<path d="m-44.254722 682.91057c195.353132-132.92976 351.447222-98.86848 466.022032-48.80765 204.35207-329.62316 703.72149-387.88427 998.49769-44.04599 161.505-107.80619 371.353-50.80746 513.0074 52.62089v1277.32218h-1933.2724z" fill="#ccf4fe"/>
<path d="m-31.628257 1167.2235c141.494017-53.3934 359.227947-17.1959 518.575047 66.9771 65.06772-453.22794 741.28201-465.29026 983.71021-104.8824 63.4716-32.6017 324.2921-63.3571 474.0492 90.6289v700.0529h-1944.7062z" fill="#fff"/>
<g fill="none" stroke="#24a8b5" stroke-width="54" transform="rotate(19,563,-133)">
<rect fill="#fff" height="291.04729" rx="6" width="465.78566" x="658.32253" y="885.69167"/>
<path d="m679.21967 898.18315 135.36056 123.54005c52.5322 47.9448 95.48415 41.0626 142.69405 2.6219l160.20842-128.62378"/>
<path d="m660.09283 1167.9354 165.27316-150.8431"/>
<path d="m1120.3373 1163.3457-172.18298-144.7062"/>
</g>
<g clip-path="url(#a)">
<use href="#b"/>
<g fill="#86dae2">
<path d="m1233.1711 1089.7708c74.3447 200.172 163.4242 242.1899 428.0614 258.5212z"/>
<path d="m953.96862 900.02607c87.31948-193.16064 157.28438-342.38841 439.70248-467.33639 138.8966-73.9092 194.465-250.8988 206.6771-310.43615-821.074 333.68623-646.37958 777.77254-646.37958 777.77254z"/>
<path d="m1304.4521 518.42089c-3.1972 24.87639 8.6381 41.59821 36.7513 33.28049 71.1957-54.02509 205.5464-129.071 264.9326-160.18902l-42.9959-39.98576c-86.0448 61.38901-171.0257 114.41378-258.688 166.89429z"/>
</g>
<g fill="#24a8b5">
<path d="m650.66153 1043.6358c35.84819-7.7967 100.70568 99.4805 195.35014 170.7051 87.87216 66.1281 182.82513 122.737 315.04673 156.9323h-400z"/>
<path d="m1512.902 1589.2508c-18.6453-5.0324-36.0134-17.755-46.902-25.6075-22.5409-16.2558-34.9983-29.0675-52.526-54.0201-3.983-5.6702-4.909-7.824-5.2782-12.2758-.8038-9.6922 5.4325-20.9839 14.1406-25.6039 6.403-3.397 18.5519-3.1944 24.6636.4113 2.475 1.4602 5.5452 3.774 6.8227 5.1419 2.3601 2.527 14.1773 22.3559 14.1773 23.789 0 .4308 2.6168 4.0753 5.8152 8.0988 6.3214 7.9525 13.6647 12.5624 21.6158 13.57 2.2379.2836 4.519.8656 5.069 1.2934 3.0571 2.3778 21.7976 11.5654 28.8134 14.1258 9.3454 3.4107 38.4695 11.239 52.0269 8.325zm56.098-117.9241c-25.6398-4.1122-45.313-11.2939-63.4578-23.1654-3.8732-2.5342-7.5463-5.0916-8.1625-5.6833-2.4442-2.347-4.6232-8.0813-5.0882-13.3901-1.3041-14.888 10.8462-28.0084 25.9906-28.0659 6.9742-.026 10.3204 1.2892 21.0182 8.2643 18.1237 11.8168 18.9424 12.0203 43.3285 10.77 15.5849-.7991 21.9984-1.5668 29.7328-3.5589 11.2454-2.8964 32.7607-14.8363 39.8916-19.9593 29.3594-21.0928-4.3677 60.6463-51.7667 74.4379-5.2291 1.5215-24.7641 1.4288-31.4865.3507z"/>
<path d="m1288.7736 1166.6709c-14.4841-7.4689-27.8659-16.0015-33.595-21.4209-.7268-.6875-1.6268-1.2572-2-1.266-.3732-.01-2.0891-1.2463-3.813-2.75-5.0574-4.4113-7.6001-6.5206-12.3365-10.234-6.9934-5.4829-12.4377-11.2687-23.5562-25.0336-5.6703-7.0198-11.3497-14.0465-12.6208-15.6149-3.9429-4.8645-30.0607-30.7167-35.7676-35.4038-2.9785-2.4462-5.9035-4.8977-6.5-5.4477-2.7209-2.5089-16.3102-13.0809-29.0845-22.6268-7.7-5.754-14.9-11.191-16-12.0823-27.8685-22.57972-50.2047-44.82165-64.5636-64.2909-2.4337-3.3-4.7044-6.225-5.0459-6.5-1.3255-1.0675-11.6505-19.90497-15.073-27.5-4.9158-10.90894-5.9546-16.35613-5.9937-16.35734-.039-.001 14.657-10.58109 22.2869-17.87067 12.9353-12.35828 24.2378-27.46964 34.609-46.27199 1.6686-3.025 5.4172-9.775 8.3303-15 5.3314-9.56273 10.95-20.60836 10.95-21.52683 0-.92199 4.2808-9.89307 18.1199-37.97317 20.0968-40.77691 24.0013-47.37572 43.194-73 9.0207-12.0435 34.4314-36.74541 48.7689-47.40861 6.8295-5.07924 13.0922-9.77542 13.9172-10.43596 2.2846-1.82914 24.9623-16.08734 29.5-18.54758 2.2-1.19279 6.25-3.51776 9-5.16659s5.9-3.43407 7-3.96718c1.1-.53312 2.675-1.41859 3.5-1.96772 1.7622-1.17296 38.3689-20.45569 65.5-34.50245 22.871-11.84113 62.7539-31.79659 74.5-37.27615 4.675-2.18089 11.4789-5.35569 15.1197-7.05511 8.3699-3.90673 18.5224-7.94846 36.8803-14.6821 52.0745-19.10082 82.1244-35.88524 114.5663-57.93548 56.591-54.73241 114.6827-143.77442 204.8677-130.93094.4589.34691-2.9044 5.47537-4.6891 7.43032-1.7847 1.95494-6.6199 7.34971-10.7449 11.98838-8.3713 9.41369-67.4215 68.80341-76 76.43687-3.025 2.69177-8.659 7.84751-12.5201 11.45721-3.861 3.6097-9.8916 9.03809-13.4014 12.06309-3.5097 3.025-7.3257 6.41342-8.4799 7.52983s-3.0471 2.69141-4.2064 3.5-5.3858 4.39517-9.3922 7.97017-8.2329 7.15658-9.3922 7.95908c-1.1593.80249-2.7345 2.07205-3.5005 2.82124-3.4044 3.32982-22.146 18.12892-39.1073 30.88055-6.325 4.75519-13.3 10.33063-15.5 12.38986-2.2 2.05924-7.8659 6.82773-12.5909 10.59667-9.2341 7.36566-10.9713 8.69193-20.8478 15.91646-7.6025 5.56117-7.5357 5.50965-12.1933 9.40136-1.9976 1.66913-3.9297 3.03478-4.2936 3.03478-.6844 0-6.3395 4.98978-12.3271 10.87699-7.8164 7.68525-12.2473 18.09358-12.2473 28.76916 0 8.24671 6.7852 19.31415 14.2501 23.24339 2.4436 1.28622 3.0344 1.14175 7.9449-1.9428 7.2368-4.54577 43.0629-28.18107 44.305-29.22898.55-.46402 5.725-4.17698 11.5-8.25104 18.3873-12.9716 54.7069-39.83495 56-41.41971.275-.33703 7.25-5.97722 15.5-12.53373 8.25-6.55652 17.6892-14.19172 20.9759-16.96711 6.676-5.63736 6.714-5.67032 12.142-10.54617 2.143-1.925 8.6181-7.53436 14.3892-12.46525 5.7711-4.93088 17.3806-16.47746 19.8378-18.83408 14.1473-13.56818 40.9289 20.21634 34.0829 48.6802-1.6566 6.88714-41.7247 48.98956-68.8345 72.61913-13.0542 11.37834-36.8282 28.85402-55.0933 40.49771-6.875 4.38271-12.725 8.20114-13 8.48542s-3.425 2.05594-7 3.93703-10.1306 5.81859-14.568 8.75c-4.4375 2.93141-8.5625 5.32984-9.1667 5.32984-.6043 0-1.2486.39679-1.432.88177-1.0625 2.81072-34.9649 17.57585-55.1028 23.9983-7.528 2.40085-41.1813 10.90498-55.418 14.00404-9.5115 2.07045-13.3542 3.61322-16.8639 6.77047-14.14 12.72-10.9471 36.08206 6.0105 43.97855 8.3843 3.90423 14.5044 3.25572 44.5409-4.71974 23.2114-6.16323 55.8635-17.70206 77.5-27.38751 13.773-6.1654 45.7416-23.08079 46.4986-23.4063 19.2912-8.29473 50.8351 37.4702 31.0473 65.79168-4.7798 6.84129-28.1452 30.01453-37.0459 37.42496-4.675 3.89223-8.725 7.32249-9 7.62281-2.5034 2.73388-26.6145 19.2044-35 23.90891-8.1316 4.56204-27.8123 13.8933-36.1821 17.15511-15.8184 6.16462-25.8704 9.06135-57.3179 16.51751-14.6692 3.47805-24.5121 4.58773-41.5 4.67865-16.4011.0878-22.6551-.4613-48.1926-4.23122-3.681-.5434-9.531-.98359-13-.97822-19.6876.0305-32.571 19.93082-24.267 37.48403 4.1799 8.8356 7.3725 10.90357 20.5966 13.34134 15.9836 2.94647 23.909 3.8949 43.5059 5.20641 19.4217 1.29976 44.5016.15505 66.2442-3.02356 6.9371-1.01416 16.7595-2.20862 16.9641-2.00613 7.0343 17.98197 15.4318 34.89104-.5251 46.85513-7.6975 5.77148-20.0799 12.38579-30.8261 18.09216-5.7335 3.04459-19.9844 8.87616-29.5 12.07162-26.6188 8.93895-53.585 12.08754-86.5 10.09981-15.4676-.93409-20.3213-1.66343-34.5-5.18412-12.6562-3.14267-17.8977-4.00843-22.5-3.71645-10.3873.659-17.7758 5.84336-22.2827 15.63534-2.1083 4.58065-2.3966 6.38465-1.9709 12.33435.4327 6.047 1.0116 7.7078 4.3761 12.553l3.8775 5.584 11 3.3669c24.2908 7.4351 57.1068 13.2823 75.8676 12.9354 17.3135-.3202 26.4227 119.255-72.197 130.361-.6139.069-6.6465-2.8481-13.397-6.3291z"/>
</g>
<circle cx="708.6" cy="879.6" fill="#fff" r="26"/>
</g>
</svg>
